<?xml version="1.0" encoding="iso-8859-1"?>
<!-- Generator: Adobe Illustrator 19.0.0, SVG Export Plug-In . SVG Version: 6.00 Build 0)  -->
<svg version="1.1" id="Layer_1" xmlns="http://www.w3.org/2000/svg" xmlns:xlink="http://www.w3.org/1999/xlink" x="0px" y="0px"
	 viewBox="0 0 512 512" style="enable-background:new 0 0 512 512;" xml:space="preserve">
<rect x="78.916" y="154.454" style="fill:#CEE8FA;" width="354.16" height="136.348"/>
<g>
	<path style="fill:#2D527C;" d="M433.081,305.612H78.919c-8.184,0-14.817-6.635-14.817-14.817V154.453
		c0-8.182,6.634-14.817,14.817-14.817h354.162c8.184,0,14.817,6.635,14.817,14.817v136.342
		C447.898,298.976,441.264,305.612,433.081,305.612z M93.736,275.977h324.527V169.27H93.736V275.977z"/>
	<path style="fill:#2D527C;" d="M388.748,445.247H78.919c-8.184,0-14.817-6.635-14.817-14.817V14.817
		C64.102,6.635,70.736,0,78.919,0h298.702c8.184,0,14.817,6.635,14.817,14.817s-6.634,14.817-14.817,14.817H93.736v385.978h295.011
		c16.275,0,29.516-13.241,29.516-29.516V73.97c0-8.182,6.634-14.817,14.817-14.817s14.817,6.635,14.817,14.817v312.127
		C447.898,418.713,421.363,445.247,388.748,445.247z"/>
</g>
<rect x="327.963" y="14.817" style="fill:#CEE8FA;" width="49.66" height="415.607"/>
<path style="fill:#2D527C;" d="M377.622,445.247h-49.66c-8.184,0-14.817-6.635-14.817-14.817V14.817
	C313.145,6.635,319.778,0,327.962,0h49.66c8.184,0,14.817,6.635,14.817,14.817V430.43
	C392.439,438.613,385.805,445.247,377.622,445.247z M342.779,415.613h20.025V29.634h-20.025V415.613z"/>
<polygon style="fill:#CEE8FA;" points="163.113,497.183 121.016,482.668 78.919,497.183 78.919,430.43 163.113,430.43 "/>
<path style="fill:#2D527C;" d="M163.112,512c-1.622,0-3.254-0.267-4.829-0.809l-37.267-12.849L83.75,511.191
	c-4.531,1.56-9.533,0.834-13.432-1.944c-3.9-2.781-6.216-7.275-6.216-12.066v-66.753c0-8.182,6.634-14.817,14.817-14.817h84.194
	c8.184,0,14.817,6.635,14.817,14.817v66.753c0,4.789-2.316,9.284-6.216,12.066C169.171,511.061,166.157,512,163.112,512z
	 M121.016,467.851c1.633,0,3.266,0.27,4.83,0.809l22.45,7.742v-31.153h-54.56v31.153l22.449-7.742
	C117.751,468.12,119.383,467.851,121.016,467.851z"/>
<g>
</g>
<g>
</g>
<g>
</g>
<g>
</g>
<g>
</g>
<g>
</g>
<g>
</g>
<g>
</g>
<g>
</g>
<g>
</g>
<g>
</g>
<g>
</g>
<g>
</g>
<g>
</g>
<g>
</g>
</svg>
