<?xml version="1.0" encoding="iso-8859-1"?>
<!-- Generator: Adobe Illustrator 19.0.0, SVG Export Plug-In . SVG Version: 6.00 Build 0)  -->
<svg version="1.1" id="Layer_1" xmlns="http://www.w3.org/2000/svg" xmlns:xlink="http://www.w3.org/1999/xlink" x="0px" y="0px"
	 viewBox="0 0 512 512" style="enable-background:new 0 0 512 512;" xml:space="preserve">
<path style="fill:#2D527C;" d="M242.078,403.028c-0.152,0-0.304-0.001-0.456-0.007c-17.504-0.552-32.837-12.116-38.157-28.772
	c-0.016-0.048-0.03-0.095-0.045-0.143l-30.659-99.598c-6.891-21.737,5.153-45.049,26.877-51.997
	c10.547-3.368,21.768-2.428,31.6,2.642c2.015,1.039,3.923,2.225,5.711,3.547V112.953c0-22.843,18.585-41.427,41.429-41.427
	c22.843,0,41.427,18.585,41.427,41.427v36.479c0,7.842-6.357,14.199-14.199,14.199c-7.842,0-14.199-6.357-14.199-14.199v-36.479
	c0-7.186-5.846-13.03-13.03-13.03s-13.031,5.846-13.031,13.03v181.065c0,6.993-5.092,12.945-12.001,14.027
	c-6.913,1.082-13.578-3.026-15.716-9.684l-12.959-40.331c-2.192-6.866-9.541-10.653-16.389-8.468
	c-6.838,2.187-10.628,9.54-8.443,16.389c0.014,0.047,0.03,0.092,0.044,0.139l30.652,99.574c1.687,5.197,6.494,8.799,11.984,8.972
	c7.838,0.247,13.991,6.803,13.744,14.64C256.02,396.963,249.712,403.028,242.078,403.028z"/>
<path style="fill:#CEE8FA;" d="M247.676,225.351c1.142,0.601,2.31,0.944,3.47,1.109V112.953c0-15.038,12.19-27.23,27.23-27.23
	c9.79,0,18.347,5.184,23.147,12.939c0.395-5.187-3.088-10.439-9.012-11.299l-63.989-9.299l-28.616-57.983
	c-3.871-7.843-15.055-7.843-18.925,0l-28.616,57.983l-63.989,9.299c-8.655,1.258-12.111,11.894-5.848,18l46.303,45.133
	l-10.93,63.731c-1.478,8.62,7.569,15.194,15.312,11.125l57.233-30.09L247.676,225.351z"/>
<g>
	<path style="fill:#2D527C;" d="M128.299,240.785c-7.305,0-14.216-3.227-18.961-8.857c-4.688-5.562-6.668-12.888-5.431-20.101
		l9.669-56.373L72.617,115.53c-6.797-6.625-9.196-16.347-6.263-25.373c2.932-9.026,10.589-15.481,19.98-16.845l56.601-8.225
		l25.313-51.29C172.449,5.288,180.954,0,190.443,0c9.49,0,17.995,5.288,22.195,13.797l25.313,51.291l56.601,8.225
		c12.833,1.864,22.113,13.472,21.128,26.428c-0.466,6.13-4.823,11.262-10.795,12.718c-5.973,1.458-12.204-1.096-15.437-6.324
		c-2.407-3.889-6.546-6.212-11.072-6.212c-7.186,0-13.031,5.846-13.031,13.032V226.46c0,4.115-1.785,8.026-4.891,10.723
		s-7.23,3.916-11.305,3.334c-2.853-0.406-5.572-1.279-8.08-2.6l-50.625-26.615l-50.625,26.615
		C136.251,239.794,132.267,240.785,128.299,240.785z M97.729,100.352l41.011,39.978c3.347,3.261,4.874,7.961,4.084,12.567
		l-9.681,56.448l50.693-26.652c4.137-2.174,9.079-2.174,13.215,0l39.898,20.976v-90.715c0-6.712,1.604-13.057,4.45-18.67
		l-14.917-2.168c-4.625-0.672-8.623-3.577-10.69-7.767l-25.347-51.359l-25.347,51.359c-2.069,4.19-6.066,7.095-10.69,7.767
		L97.729,100.352z"/>
	<path style="fill:#2D527C;" d="M408.456,398.33c-7.008,0-13.105-5.188-14.057-12.326c-1.035-7.772,4.427-14.913,12.199-15.949
		c6.773-0.902,11.88-6.744,11.88-13.592v-75.964c0-7.569-6.158-13.727-13.727-13.727c-2.439,0-4.747,0.619-6.857,1.839
		c-4.393,2.542-9.808,2.543-14.203,0.007c-4.394-2.536-7.104-7.224-7.104-12.299v-0.767c0-7.569-6.158-13.727-13.729-13.727
		c-2.445,0-4.747,0.616-6.841,1.83c-4.393,2.546-9.811,2.554-14.21,0.018c-4.399-2.534-7.109-7.226-7.109-12.303v-3.142
		c0-7.569-6.158-13.727-13.729-13.727c-2.689,0-5.293,0.782-7.534,2.263c-6.544,4.323-15.352,2.526-19.674-4.015
		c-4.323-6.541-2.526-15.352,4.015-19.674c6.899-4.561,14.92-6.972,23.192-6.972c18.049,0,33.483,11.409,39.468,27.393
		c0.805-0.047,1.613-0.07,2.421-0.07c17.166,0,31.967,10.321,38.524,25.083c1.119-0.089,2.242-0.135,3.368-0.135
		c23.228,0,42.125,18.897,42.125,42.125v75.964c0,21.022-15.704,38.967-36.527,41.741
		C409.713,398.289,409.081,398.33,408.456,398.33z"/>
</g>
<path style="fill:#CEE8FA;" d="M392.041,497.801H252.869c-13.368,0-24.204-10.836-24.204-24.204V437.02h187.581v36.577
	C416.245,486.965,405.409,497.801,392.041,497.801z"/>
<path style="fill:#2D527C;" d="M392.042,512H252.869c-21.176,0-38.403-17.227-38.403-38.402v-36.577
	c0-7.842,6.357-14.199,14.199-14.199h187.581c7.842,0,14.199,6.357,14.199,14.199v36.577C430.444,494.773,413.217,512,392.042,512z
	 M242.863,451.22v22.378c0,5.516,4.488,10.004,10.006,10.004h139.174c5.516,0,10.004-4.488,10.004-10.004V451.22H242.863z"/>
<g>
</g>
<g>
</g>
<g>
</g>
<g>
</g>
<g>
</g>
<g>
</g>
<g>
</g>
<g>
</g>
<g>
</g>
<g>
</g>
<g>
</g>
<g>
</g>
<g>
</g>
<g>
</g>
<g>
</g>
</svg>
