<?xml version="1.0" encoding="iso-8859-1"?>
<!-- Generator: Adobe Illustrator 19.0.0, SVG Export Plug-In . SVG Version: 6.00 Build 0)  -->
<svg version="1.1" id="Layer_1" xmlns="http://www.w3.org/2000/svg" xmlns:xlink="http://www.w3.org/1999/xlink" x="0px" y="0px"
	 viewBox="0 0 512.001 512.001" style="enable-background:new 0 0 512.001 512.001;" xml:space="preserve">
<path style="fill:#CEE8FA;" d="M33.916,319.99c-12.288-23.529-19.245-50.282-19.245-78.663c0-93.988,76.192-170.18,170.18-170.18
	s170.18,76.192,170.18,170.18s-76.192,170.18-170.18,170.18c-35.145,0-67.799-10.655-94.914-28.909l-73.848,16.616L33.916,319.99z"
	/>
<g>
	<path style="fill:#2D527C;" d="M184.851,426.178c-34.774,0-68.418-9.631-97.713-27.912L19.31,413.527
		c-4.909,1.1-10.038-0.383-13.595-3.939c-3.556-3.556-5.044-8.688-3.939-13.595l16.673-74.103C6.366,296.935,0,269.201,0,241.327
		C0,139.4,82.923,56.476,184.851,56.476s184.851,82.923,184.851,184.851S286.778,426.178,184.851,426.178z M89.937,367.928
		c2.896,0,5.752,0.857,8.194,2.501c25.663,17.276,55.65,26.407,86.72,26.407c85.749,0,155.509-69.761,155.509-155.509
		S270.6,85.818,184.851,85.818S29.341,155.578,29.341,241.327c0,25.357,5.914,49.537,17.578,71.872
		c1.606,3.076,2.07,6.625,1.309,10.011l-12.736,56.601l51.224-11.525C87.782,368.045,88.863,367.928,89.937,367.928z"/>
	<path style="fill:#2D527C;" d="M341.82,455.525c-9.917,0-19.88-0.866-29.614-2.575c-7.979-1.401-13.314-9.006-11.914-16.987
		c1.4-7.981,9.008-13.314,16.987-11.914c8.063,1.416,16.32,2.133,24.541,2.133c28.138,0,55.297-8.27,78.538-23.916
		c3.348-2.253,7.479-3.027,11.414-2.142l44.857,10.092l-11.198-49.77c-0.763-3.387-0.299-6.935,1.309-10.013
		c10.563-20.227,15.919-42.125,15.919-65.091c0-58.45-35.172-109.96-89.606-131.229c-7.547-2.949-11.274-11.458-8.324-19.004
		c2.949-7.548,11.455-11.271,19.004-8.326c31.546,12.326,58.48,33.593,77.89,61.498c19.873,28.574,30.379,62.136,30.379,97.06
		c0,25.514-5.792,50.9-16.794,73.772l15.139,67.284c1.105,4.907-0.383,10.038-3.939,13.595c-3.556,3.558-8.685,5.045-13.595,3.939
		l-61.476-13.832C404.471,446.754,373.66,455.525,341.82,455.525z"/>
	<path style="fill:#2D527C;" d="M273.854,259.905h-18.582c-8.103,0-14.671-6.568-14.671-14.671c0-8.103,6.568-14.671,14.671-14.671
		h18.582c8.103,0,14.671,6.568,14.671,14.671C288.524,253.337,281.956,259.905,273.854,259.905z"/>
	<path style="fill:#2D527C;" d="M194.875,259.905h-18.582c-8.103,0-14.671-6.568-14.671-14.671c0-8.103,6.568-14.671,14.671-14.671
		h18.582c8.103,0,14.671,6.568,14.671,14.671C209.546,253.337,202.978,259.905,194.875,259.905z"/>
	<path style="fill:#2D527C;" d="M115.899,259.905H97.317c-8.103,0-14.671-6.568-14.671-14.671c0-8.103,6.568-14.671,14.671-14.671
		h18.582c8.103,0,14.671,6.568,14.671,14.671C130.569,253.337,124.001,259.905,115.899,259.905z"/>
</g>
<g>
</g>
<g>
</g>
<g>
</g>
<g>
</g>
<g>
</g>
<g>
</g>
<g>
</g>
<g>
</g>
<g>
</g>
<g>
</g>
<g>
</g>
<g>
</g>
<g>
</g>
<g>
</g>
<g>
</g>
</svg>
