<?xml version="1.0" encoding="iso-8859-1"?>
<!-- Generator: Adobe Illustrator 19.0.0, SVG Export Plug-In . SVG Version: 6.00 Build 0)  -->
<svg version="1.1" id="Layer_1" xmlns="http://www.w3.org/2000/svg" xmlns:xlink="http://www.w3.org/1999/xlink" x="0px" y="0px"
	 viewBox="0 0 512 512" style="enable-background:new 0 0 512 512;" xml:space="preserve">
<path style="fill:#CEE8FA;" d="M473.786,322.383l-26.779-21.755c3.343-14.333,5.108-29.278,5.108-44.622
	c0-15.357-1.765-30.29-5.108-44.632l26.779-21.755c8.865-7.201,11.185-19.775,5.475-29.667l-28.448-49.279
	c-5.711-9.893-17.763-14.171-28.434-10.092l-32.278,12.337c-21.698-20.346-48.033-35.808-77.241-44.644l-5.455-34.075
	c-1.805-11.277-11.533-19.573-22.955-19.573h-56.902c-11.422,0-21.153,8.298-22.956,19.576l-5.449,34.071
	c-29.217,8.836-55.551,24.299-77.251,44.644L89.624,100.58c-10.67-4.079-22.722,0.199-28.434,10.091l-28.453,49.28
	c-5.711,9.892-3.391,22.466,5.474,29.669l26.776,21.754c-3.329,14.342-5.105,29.274-5.105,44.632c0,15.345,1.777,30.29,5.105,44.622
	l-26.776,21.754c-8.865,7.203-11.185,19.777-5.474,29.669l28.453,49.277c5.712,9.892,17.764,14.17,28.434,10.091l32.269-12.336
	c21.698,20.357,48.033,35.821,77.251,44.656l5.448,34.06c1.805,11.278,11.534,19.576,22.956,19.576h56.904
	c11.42,0,21.15-8.295,22.956-19.572l5.455-34.063c29.208-8.836,55.542-24.299,77.241-44.656l32.278,12.336
	c10.67,4.079,22.722-0.2,28.433-10.092l28.448-49.276C484.972,342.159,482.651,329.585,473.786,322.383z M256,403.2
	c-81.296,0-147.201-65.904-147.201-147.201s65.904-147.2,147.201-147.2S403.201,174.703,403.201,256S337.296,403.2,256,403.2z"/>
<g>
	<path style="fill:#2D527C;" d="M284.453,512h-56.904c-18.715,0-34.442-13.412-37.398-31.892l-4.039-25.251
		c-24.533-8.639-47.524-21.931-67.334-38.927l-23.93,9.149c-4.341,1.658-8.887,2.499-13.516,2.499
		c-13.49,0-26.059-7.257-32.806-18.939l-28.453-49.277c-9.355-16.204-5.606-36.53,8.918-48.331l19.86-16.135
		c-2.388-12.802-3.595-25.846-3.595-38.891c0-13.044,1.208-26.089,3.595-38.9L28.99,200.971
		c-14.524-11.799-18.272-32.126-8.917-48.331l28.453-49.28c6.743-11.682,19.315-18.939,32.804-18.939
		c4.63,0,9.177,0.841,13.516,2.499l23.934,9.151c19.813-16.989,42.806-30.279,67.331-38.917l4.039-25.259
		C193.107,13.414,208.834,0,227.549,0h56.902c18.712,0,34.439,13.411,37.396,31.886l4.045,25.267
		c24.525,8.639,47.512,21.928,67.324,38.917l23.942-9.151c4.339-1.658,8.886-2.499,13.514-2.499c13.493,0,26.062,7.258,32.807,18.94
		l28.448,49.279c9.355,16.207,5.604,36.532-8.921,48.33L463.148,217.1c2.387,12.773,3.593,25.818,3.593,38.904
		c0,13.086-1.207,26.13-3.592,38.895l19.859,16.132c14.522,11.796,18.273,32.123,8.918,48.328l-28.446,49.277
		c-6.743,11.682-19.315,18.94-32.806,18.94c0,0,0,0-0.001,0c-4.629,0-9.175-0.841-13.513-2.499l-23.94-9.151
		c-19.809,16.997-42.797,30.289-67.327,38.929l-4.045,25.258C318.892,498.591,303.164,512,284.453,512z M121.89,384.458
		c3.656,0,7.249,1.372,10.01,3.959c20.277,19.026,44.994,33.315,71.476,41.323c5.36,1.62,9.323,6.16,10.206,11.689l5.449,34.06
		c0.674,4.207,4.254,7.261,8.516,7.261h56.904c4.26,0,7.84-3.054,8.514-7.26l5.453-34.065c0.885-5.527,4.847-10.066,10.206-11.685
		c26.479-8.01,51.193-22.298,71.468-41.324c4.085-3.829,9.997-4.993,15.228-2.995L427.6,397.76c0.993,0.38,2.025,0.572,3.073,0.572
		c3.074,0,5.939-1.654,7.475-4.316l28.446-49.276c2.129-3.688,1.277-8.317-2.03-11.002l-26.782-21.755
		c-4.343-3.529-6.291-9.227-5.021-14.674c3.137-13.441,4.727-27.336,4.727-41.3c0-13.959-1.591-27.858-4.727-41.31
		c-1.271-5.451,0.679-11.145,5.021-14.673l26.78-21.755c3.308-2.687,4.162-7.314,2.031-11.003l-28.445-49.282
		c-1.537-2.662-4.402-4.316-7.476-4.316c-1.046,0-2.08,0.193-3.073,0.572l-32.276,12.337c-5.231,1.998-11.141,0.835-15.224-2.992
		c-20.284-19.021-45-33.306-71.473-41.316c-5.358-1.62-9.322-6.158-10.206-11.686l-5.453-34.075c-0.674-4.206-4.254-7.26-8.516-7.26
		h-56.902c-4.262,0-7.842,3.055-8.516,7.263l-5.448,34.071c-0.885,5.528-4.848,10.069-10.208,11.689
		c-26.478,8.004-51.196,22.292-71.481,41.313c-4.083,3.829-9.994,4.991-15.226,2.992l-32.269-12.337
		c-0.992-0.38-2.025-0.572-3.073-0.572c-3.074,0-5.938,1.653-7.473,4.314l-28.453,49.28c-2.131,3.69-1.277,8.318,2.03,11.003
		L74.21,200.02c4.338,3.525,6.289,9.213,5.025,14.657c-3.138,13.519-4.728,27.422-4.728,41.326c0,13.908,1.591,27.807,4.728,41.314
		c1.264,5.446-0.686,11.135-5.025,14.66l-26.776,21.754c-3.308,2.687-4.162,7.314-2.031,11.003l28.453,49.277
		c1.537,2.66,4.402,4.314,7.475,4.314c1.047,0,2.081-0.193,3.074-0.572l32.266-12.337
		C118.367,384.774,120.137,384.458,121.89,384.458z M256,417.824c-89.231,0-161.824-72.594-161.824-161.824
		S166.768,94.176,256,94.176S417.824,166.77,417.824,256S345.23,417.824,256,417.824z M256,123.425
		c-73.102,0-132.575,59.473-132.575,132.575S182.898,388.575,256,388.575S388.575,329.102,388.575,256S329.102,123.425,256,123.425z
		"/>
	<path style="fill:#2D527C;" d="M261.346,339.512c-2.05,0.001-4.131-0.433-6.116-1.347c-7.336-3.383-10.538-12.07-7.157-19.405
		l46.924-101.76l-72.534,33.446l21.906,9.809c7.372,3.301,10.673,11.953,7.372,19.323c-3.299,7.372-11.95,10.677-19.323,7.372
		l-51.281-22.959c-5.236-2.344-8.618-7.53-8.649-13.266c-0.031-5.736,3.292-10.96,8.501-13.362l137.77-63.529
		c5.566-2.565,12.135-1.391,16.466,2.94c4.33,4.332,5.505,10.903,2.94,16.466l-63.529,137.77
		C272.167,336.36,266.875,339.512,261.346,339.512z"/>
</g>
<g>
</g>
<g>
</g>
<g>
</g>
<g>
</g>
<g>
</g>
<g>
</g>
<g>
</g>
<g>
</g>
<g>
</g>
<g>
</g>
<g>
</g>
<g>
</g>
<g>
</g>
<g>
</g>
<g>
</g>
</svg>
