<?xml version="1.0" encoding="iso-8859-1"?>
<!-- Generator: Adobe Illustrator 19.0.0, SVG Export Plug-In . SVG Version: 6.00 Build 0)  -->
<svg version="1.1" id="Layer_1" xmlns="http://www.w3.org/2000/svg" xmlns:xlink="http://www.w3.org/1999/xlink" x="0px" y="0px"
	 viewBox="0 0 512 512" style="enable-background:new 0 0 512 512;" xml:space="preserve">
<g>
	<path style="fill:#2D527C;" d="M217.834,190.639c-8.541,0-15.464-6.925-15.464-15.464V15.464C202.37,6.925,209.293,0,217.834,0
		h192.114c23.225,0,42.119,18.894,42.119,42.117v79.622c0,8.539-6.923,15.464-15.464,15.464c-8.541,0-15.464-6.925-15.464-15.464
		V42.117c0-6.17-5.021-11.19-11.191-11.19H233.298v144.248C233.298,183.716,226.374,190.639,217.834,190.639z"/>
	<path style="fill:#2D527C;" d="M465.847,512H46.153c-24.625,0-44.656-20.032-44.656-44.656V161.951
		c0-24.625,20.033-44.658,44.656-44.658h79.578c4.511,0,8.797,1.969,11.735,5.392l49.909,58.158h278.47
		c24.625,0,44.656,20.033,44.656,44.658v166.718c0,8.539-6.923,15.464-15.464,15.464c-8.541,0-15.464-6.925-15.464-15.464V225.502
		c0-7.571-6.159-13.73-13.729-13.73H180.271c-4.511,0-8.797-1.969-11.735-5.392l-49.909-58.158H46.153
		c-7.571,0-13.729,6.159-13.729,13.73v305.391c0,7.571,6.159,13.729,13.729,13.729h419.693c8.541,0,15.464,6.925,15.464,15.464
		C481.311,505.075,474.386,512,465.847,512z"/>
</g>
<path style="fill:#CEE8FA;" d="M125.731,132.758l54.539,63.552h180V15.464H102.052c-14.722,0-26.655,11.933-26.655,26.655v90.639
	H125.731z"/>
<path style="fill:#2D527C;" d="M360.271,211.774h-180c-4.511,0-8.797-1.969-11.735-5.392l-49.911-58.159H75.397
	c-8.541,0-15.464-6.925-15.464-15.464V42.117C59.933,18.894,78.827,0,102.052,0h258.219c8.541,0,15.464,6.925,15.464,15.464V196.31
	C375.735,204.85,368.811,211.774,360.271,211.774z M187.378,180.846h157.429V30.928H102.052c-6.17,0-11.191,5.02-11.191,11.19
	v75.176h34.871c4.511,0,8.797,1.969,11.735,5.392L187.378,180.846z"/>
<rect x="341.379" y="310.961" style="fill:#CEE8FA;" width="153.648" height="86.218"/>
<path style="fill:#2D527C;" d="M495.039,412.642H341.385c-8.541,0-15.464-6.925-15.464-15.464V310.96
	c0-8.539,6.923-15.464,15.464-15.464h153.654c8.541,0,15.464,6.925,15.464,15.464v86.218
	C510.503,405.717,503.58,412.642,495.039,412.642z M356.849,381.714h122.727v-55.291H356.849V381.714L356.849,381.714z"/>
<g>
</g>
<g>
</g>
<g>
</g>
<g>
</g>
<g>
</g>
<g>
</g>
<g>
</g>
<g>
</g>
<g>
</g>
<g>
</g>
<g>
</g>
<g>
</g>
<g>
</g>
<g>
</g>
<g>
</g>
</svg>
