<?xml version="1.0" encoding="iso-8859-1"?>
<!-- Generator: Adobe Illustrator 19.0.0, SVG Export Plug-In . SVG Version: 6.00 Build 0)  -->
<svg version="1.1" id="Layer_1" xmlns="http://www.w3.org/2000/svg" xmlns:xlink="http://www.w3.org/1999/xlink" x="0px" y="0px"
	 viewBox="0 0 512 512" style="enable-background:new 0 0 512 512;" xml:space="preserve">
<path style="fill:#CEE8FA;" d="M148.171,479.167H52.326V311.335c0-13.805,11.19-24.996,24.996-24.996h45.854
	c13.805,0,24.996,11.19,24.996,24.996V479.167z"/>
<path style="fill:#2D527C;" d="M148.171,493.59H52.326c-7.966,0-14.423-6.457-14.423-14.423V311.335
	c0-21.735,17.682-39.418,39.418-39.418h45.854c21.735,0,39.418,17.682,39.418,39.418v167.832
	C162.594,487.133,156.137,493.59,148.171,493.59z M66.749,464.745h67v-153.41c0-5.83-4.744-10.573-10.573-10.573H77.322
	c-5.83,0-10.573,4.744-10.573,10.573V464.745z"/>
<path style="fill:#CEE8FA;" d="M459.674,479.167h-95.845V255.838c0-13.805,11.19-24.996,24.996-24.996h45.854
	c13.805,0,24.996,11.19,24.996,24.996V479.167z"/>
<g>
	<path style="fill:#2D527C;" d="M459.674,493.59H363.83c-7.964,0-14.423-6.457-14.423-14.423V255.838
		c0-21.735,17.682-39.418,39.417-39.418h45.854c21.735,0,39.418,17.682,39.418,39.418v223.329
		C474.096,487.133,467.638,493.59,459.674,493.59z M378.253,464.745h66.998V255.838c0-5.83-4.744-10.573-10.573-10.573h-45.854
		c-5.83,0-10.572,4.744-10.572,10.573L378.253,464.745L378.253,464.745z"/>
	<path style="fill:#2D527C;" d="M208.078,493.59c-7.966,0-14.423-6.457-14.423-14.423V192.916h-29.762
		c-5.257,0-10.096-2.86-12.633-7.464c-2.535-4.604-2.367-10.224,0.443-14.666L243.81,25.124c2.644-4.18,7.244-6.714,12.19-6.714
		s9.546,2.534,12.19,6.714l92.107,145.66c2.81,4.444,2.978,10.063,0.443,14.666c-2.535,4.604-7.376,7.464-12.633,7.464h-29.762
		v189.837c0,7.966-6.458,14.423-14.423,14.423s-14.423-6.457-14.423-14.423V178.493c0-7.966,6.458-14.423,14.423-14.423h17.999
		L256,59.819l-65.923,104.252h18.001c7.966,0,14.423,6.457,14.423,14.423v300.674C222.501,487.133,216.044,493.59,208.078,493.59z"
		/>
	<path style="fill:#2D527C;" d="M293.637,493.59H14.423C6.457,493.59,0,487.133,0,479.167c0-7.966,6.457-14.423,14.423-14.423
		h279.214c7.964,0,14.423,6.457,14.423,14.423C308.06,487.133,301.601,493.59,293.637,493.59z"/>
	<path style="fill:#2D527C;" d="M497.577,493.59H363.83c-7.964,0-14.423-6.457-14.423-14.423c0-7.966,6.458-14.423,14.423-14.423
		h133.747c7.964,0,14.423,6.457,14.423,14.423C512,487.133,505.542,493.59,497.577,493.59z"/>
</g>
<g>
</g>
<g>
</g>
<g>
</g>
<g>
</g>
<g>
</g>
<g>
</g>
<g>
</g>
<g>
</g>
<g>
</g>
<g>
</g>
<g>
</g>
<g>
</g>
<g>
</g>
<g>
</g>
<g>
</g>
</svg>
