<?xml version="1.0" encoding="iso-8859-1"?>
<!-- Generator: Adobe Illustrator 19.0.0, SVG Export Plug-In . SVG Version: 6.00 Build 0)  -->
<svg version="1.1" id="Layer_1" xmlns="http://www.w3.org/2000/svg" xmlns:xlink="http://www.w3.org/1999/xlink" x="0px" y="0px"
	 viewBox="0 0 512 512" style="enable-background:new 0 0 512 512;" xml:space="preserve">
<g>
	<path style="fill:#2D527C;" d="M355.891,220.63c-3.045,0-6.114-0.943-8.748-2.895c-6.526-4.837-7.894-14.049-3.056-20.575
		c14.056-18.96,21.487-41.5,21.487-65.181V29.416H131.717c-8.123,0-14.708-6.586-14.708-14.708S123.594,0,131.717,0h248.564
		c8.123,0,14.708,6.586,14.708,14.708v117.269c0,30.038-9.431,58.636-27.271,82.701C364.832,218.57,360.39,220.63,355.891,220.63z"
		/>
	<path style="fill:#2D527C;" d="M256.001,270.968c-76.639,0-138.99-62.351-138.99-138.99v-27.446
		c0-8.122,6.585-14.708,14.708-14.708s14.708,6.586,14.708,14.708v27.446c0,60.419,49.154,109.574,109.574,109.574
		c8.123,0,14.708,6.586,14.708,14.708C270.709,264.381,264.124,270.968,256.001,270.968z"/>
	<path style="fill:#2D527C;" d="M404.729,29.416H107.271c-8.123,0-14.708-6.586-14.708-14.708S99.148,0,107.271,0h297.458
		c8.123,0,14.708,6.586,14.708,14.708S412.852,29.416,404.729,29.416z"/>
	<path style="fill:#2D527C;" d="M380.283,512H131.719c-8.123,0-14.708-6.586-14.708-14.708V380.023
		c0-76.639,62.351-138.99,138.99-138.99s138.99,62.351,138.99,138.99v26.929c0,8.122-6.585,14.708-14.708,14.708
		c-8.123,0-14.708-6.586-14.708-14.708v-26.929c0-60.419-49.154-109.574-109.574-109.574s-109.574,49.155-109.574,109.574v102.561
		h233.856c8.123,0,14.708,6.586,14.708,14.708S388.406,512,380.283,512z"/>
	<path style="fill:#2D527C;" d="M404.729,512H107.271c-8.123,0-14.708-6.586-14.708-14.708s6.585-14.708,14.708-14.708h297.458
		c8.123,0,14.708,6.586,14.708,14.708S412.852,512,404.729,512z"/>
</g>
<path style="fill:#CEE8FA;" d="M271.793,242.54l61.442-138.011h-154.47l61.442,138.011
	C247.226,258.305,264.774,258.305,271.793,242.54z"/>
<path style="fill:#2D527C;" d="M256.001,269.072c-12.386,0-23.586-7.875-29.229-20.55l-61.442-138.011
	c-2.025-4.551-1.611-9.816,1.102-13.993s7.354-6.698,12.336-6.698h154.47c4.98,0,9.622,2.521,12.336,6.698
	c2.714,4.177,3.127,9.443,1.102,13.993l-61.442,138.011C279.586,261.199,268.386,269.072,256.001,269.072z M201.412,119.237
	l52.232,117.321c0.984,2.211,2.031,2.956,2.356,3.086c0.325-0.129,1.372-0.875,2.356-3.086l52.231-117.321H201.412z"/>
<path style="fill:#CEE8FA;" d="M240.207,268.941l-61.442,138.011h154.472l-61.442-138.011
	C264.774,253.175,247.226,253.175,240.207,268.941z"/>
<g>
	<path style="fill:#2D527C;" d="M333.235,421.659h-154.47c-4.98,0-9.622-2.521-12.336-6.698c-2.714-4.177-3.127-9.443-1.102-13.993
		l61.442-138.009c5.643-12.675,16.844-20.55,29.231-20.55s23.586,7.875,29.229,20.55l61.442,138.009
		c2.025,4.551,1.612,9.816-1.102,13.993C342.857,419.138,338.217,421.659,333.235,421.659z M201.412,392.243h109.176
		l-52.231-117.319c-1.047-2.355-2.168-3.046-2.411-3.102c-0.135,0.056-1.255,0.749-2.303,3.102L201.412,392.243z"/>
	<path style="fill:#2D527C;" d="M331.991,119.237H133.189c-8.123,0-14.708-6.586-14.708-14.708s6.585-14.708,14.708-14.708h198.803
		c8.123,0,14.708,6.586,14.708,14.708S340.114,119.237,331.991,119.237z"/>
	<path style="fill:#2D527C;" d="M378.947,421.659H178.675c-8.123,0-14.708-6.586-14.708-14.708s6.585-14.708,14.708-14.708h200.272
		c8.123,0,14.708,6.586,14.708,14.708S387.071,421.659,378.947,421.659z"/>
</g>
<g>
</g>
<g>
</g>
<g>
</g>
<g>
</g>
<g>
</g>
<g>
</g>
<g>
</g>
<g>
</g>
<g>
</g>
<g>
</g>
<g>
</g>
<g>
</g>
<g>
</g>
<g>
</g>
<g>
</g>
</svg>
