<?xml version="1.0" encoding="iso-8859-1"?>
<!-- Generator: Adobe Illustrator 19.0.0, SVG Export Plug-In . SVG Version: 6.00 Build 0)  -->
<svg version="1.1" id="Layer_1" xmlns="http://www.w3.org/2000/svg" xmlns:xlink="http://www.w3.org/1999/xlink" x="0px" y="0px"
	 viewBox="0 0 512 512" style="enable-background:new 0 0 512 512;" xml:space="preserve">
<path style="fill:#2D527C;" d="M230.785,464.038c-8.049,0-14.573-6.526-14.573-14.573c0-8.047,6.524-14.573,14.573-14.573
	c2.498,0,4.531-2.033,4.531-4.531V306.356c0-2.499-2.033-4.531-4.531-4.531H33.676c-2.498,0-4.531,2.033-4.531,4.531v124.006
	c0,2.499,2.033,4.531,4.531,4.531h147.065c8.049,0,14.573,6.526,14.573,14.573c0,8.047-6.524,14.573-14.573,14.573H33.676
	C15.108,464.038,0,448.93,0,430.362V306.356c0-18.569,15.108-33.676,33.676-33.676h197.108c18.57,0,33.676,15.108,33.676,33.676
	v124.006C264.462,448.93,249.354,464.038,230.785,464.038z"/>
<rect x="82.606" y="449.469" style="fill:#CEE8FA;" width="99.255" height="46.691"/>
<g>
	<path style="fill:#2D527C;" d="M181.856,510.735h-99.25c-8.049,0-14.573-6.526-14.573-14.573v-46.697
		c0-8.047,6.524-14.573,14.573-14.573h99.25c8.049,0,14.573,6.526,14.573,14.573v46.697
		C196.429,504.211,189.904,510.735,181.856,510.735z M97.179,481.589h70.104v-17.552H97.179V481.589z"/>
	<path style="fill:#2D527C;" d="M210.669,510.735H53.793c-8.049,0-14.573-6.526-14.573-14.573s6.524-14.573,14.573-14.573h156.878
		c8.049,0,14.573,6.526,14.573,14.573S218.718,510.735,210.669,510.735z"/>
	<path style="fill:#2D527C;" d="M230.785,192.623c-8.049,0-14.573-6.526-14.573-14.573s6.524-14.573,14.573-14.573
		c2.498,0,4.531-2.033,4.531-4.531V34.941c0-2.499-2.033-4.531-4.531-4.531H33.676c-2.498,0-4.531,2.033-4.531,4.531v124.006
		c0,2.499,2.033,4.531,4.531,4.531h147.065c8.049,0,14.573,6.526,14.573,14.573s-6.524,14.573-14.573,14.573H33.676
		C15.108,192.623,0,177.516,0,158.947V34.941C0,16.373,15.108,1.265,33.676,1.265h197.108c18.57,0,33.676,15.108,33.676,33.676
		v124.006C264.462,177.516,249.354,192.623,230.785,192.623z"/>
</g>
<rect x="82.606" y="178.051" style="fill:#CEE8FA;" width="99.255" height="46.691"/>
<g>
	<path style="fill:#2D527C;" d="M181.856,239.321h-99.25c-8.049,0-14.573-6.526-14.573-14.573v-46.697
		c0-8.047,6.524-14.573,14.573-14.573h99.25c8.049,0,14.573,6.526,14.573,14.573v46.697
		C196.429,232.796,189.904,239.321,181.856,239.321z M97.179,210.175h70.104v-17.552H97.179V210.175z"/>
	<path style="fill:#2D527C;" d="M210.669,239.321H53.793c-8.049,0-14.573-6.526-14.573-14.573s6.524-14.573,14.573-14.573h156.878
		c8.049,0,14.573,6.526,14.573,14.573S218.718,239.321,210.669,239.321z"/>
	<path style="fill:#2D527C;" d="M414.213,382.931H321.67c-8.049,0-14.573-6.526-14.573-14.573s6.524-14.573,14.573-14.573h77.97
		V111.517h-77.97c-8.049,0-14.573-6.526-14.573-14.573s6.524-14.573,14.573-14.573h92.543c8.049,0,14.573,6.526,14.573,14.573
		v271.414C428.786,376.406,422.262,382.931,414.213,382.931z"/>
</g>
<path style="fill:#CEE8FA;" d="M481.616,238.745c2.52-4.867,3.951-10.388,3.951-16.246c0-19.551-15.849-35.4-35.4-35.4
	c-6.154,0-11.939,1.572-16.982,4.334c-10.163-13.016-25.996-21.391-43.79-21.391c-30.67,0-55.533,24.863-55.533,55.533
	c0,4.124,0.453,8.14,1.306,12.008c-10.67,4.631-18.184,15.281-18.184,27.604l0,0c0,16.54,13.532,30.074,30.074,30.074h120.294
	c16.54,0,30.074-13.532,30.074-30.074l0,0C497.427,253.8,491.009,243.846,481.616,238.745z"/>
<path style="fill:#2D527C;" d="M467.353,309.833H347.06c-24.618,0-44.647-20.027-44.647-44.645c0-13.863,6.432-26.694,17.027-35.045
	c-0.099-1.521-0.149-3.046-0.149-4.569c0-38.656,31.45-70.104,70.104-70.104c17.984,0,34.88,6.736,47.764,18.78
	c4.226-1.138,8.605-1.724,13.006-1.724c27.554,0,49.973,22.419,49.973,49.973c0,3.742-0.427,7.48-1.259,11.123
	c8.285,8.263,13.12,19.558,13.12,31.565C512,289.805,491.971,309.833,467.353,309.833z M389.396,184.616
	c-22.585,0-40.958,18.373-40.958,40.958c0,2.985,0.325,5.969,0.965,8.872c1.501,6.81-2.033,13.728-8.427,16.504
	c-5.718,2.483-9.414,8.07-9.414,14.238c0,8.546,6.953,15.5,15.501,15.5h120.293c8.547,0,15.501-6.953,15.501-15.5
	c0-5.667-3.139-10.892-8.193-13.634c-6.973-3.787-9.636-12.458-5.988-19.506c1.539-2.974,2.32-6.186,2.32-9.548
	c0-11.485-9.343-20.827-20.827-20.827c-3.543,0-6.899,0.855-9.978,2.542c-6.263,3.43-14.093,1.817-18.49-3.812
	C413.868,190.369,402.093,184.616,389.396,184.616z"/>
<g>
</g>
<g>
</g>
<g>
</g>
<g>
</g>
<g>
</g>
<g>
</g>
<g>
</g>
<g>
</g>
<g>
</g>
<g>
</g>
<g>
</g>
<g>
</g>
<g>
</g>
<g>
</g>
<g>
</g>
</svg>
