<?xml version="1.0" encoding="iso-8859-1"?>
<!-- Generator: Adobe Illustrator 19.0.0, SVG Export Plug-In . SVG Version: 6.00 Build 0)  -->
<svg version="1.1" id="Layer_1" xmlns="http://www.w3.org/2000/svg" xmlns:xlink="http://www.w3.org/1999/xlink" x="0px" y="0px"
	 viewBox="0 0 512 512" style="enable-background:new 0 0 512 512;" xml:space="preserve">
<g>
	<path style="fill:#2D527C;" d="M225.913,187.351h-49.297c-8.176,0-14.803-6.629-14.803-14.803V14.803
		C161.813,6.629,168.44,0,176.616,0h49.297c8.176,0,14.803,6.629,14.803,14.803v157.744
		C240.717,180.722,234.089,187.351,225.913,187.351z M191.421,157.744h19.69V29.607h-19.69V157.744z"/>
	<path style="fill:#2D527C;" d="M176.618,512c-8.176,0-14.803-6.629-14.803-14.803v-98.588c0-8.174,6.628-14.803,14.803-14.803
		h49.297c8.176,0,14.803,6.629,14.803,14.803v56.33c0,8.174-6.628,14.803-14.803,14.803c-8.176,0-14.803-6.629-14.803-14.803
		v-41.527h-19.69v83.785C191.421,505.372,184.794,512,176.618,512z"/>
</g>
<path style="fill:#CEE8FA;" d="M374.112,172.548H141.406V83.013c0-12.781,10.361-23.142,23.142-23.142h209.564l70.43,56.339
	L374.112,172.548z"/>
<g>
	<path style="fill:#2D527C;" d="M374.112,187.351H141.405c-8.176,0-14.803-6.629-14.803-14.803V83.013
		c0-20.925,17.023-37.947,37.946-37.947h209.564c3.362,0,6.623,1.143,9.248,3.243l70.43,56.339c3.513,2.808,5.556,7.063,5.556,11.56
		c0,4.497-2.044,8.75-5.556,11.56l-70.43,56.339C380.734,186.207,377.473,187.351,374.112,187.351z M156.208,157.744h212.709
		l51.925-41.536l-51.925-41.536H164.549c-4.598,0-8.339,3.741-8.339,8.34v74.731H156.208z"/>
	<path style="fill:#2D527C;" d="M248.548,300.029H137.889c-3.362,0-6.623-1.143-9.248-3.243l-70.43-56.34
		c-3.513-2.808-5.556-7.063-5.556-11.56c0-4.497,2.044-8.75,5.556-11.56l70.432-56.338c6.385-5.11,15.701-4.072,20.808,2.312
		c5.107,6.385,4.071,15.701-2.314,20.808l-55.978,44.779l51.925,41.537h105.466c4.598,0,8.339-3.741,8.339-8.34v-89.534
		c0-8.174,6.628-14.803,14.803-14.803s14.803,6.629,14.803,14.803v89.534C286.494,283.007,269.471,300.029,248.548,300.029z"/>
	<path style="fill:#2D527C;" d="M248.548,412.706H137.889c-3.362,0-6.623-1.143-9.248-3.243l-70.43-56.339
		c-3.513-2.808-5.556-7.063-5.556-11.56s2.044-8.75,5.556-11.56l70.432-56.338c6.385-5.11,15.701-4.072,20.808,2.312
		c5.107,6.385,4.071,15.701-2.314,20.808l-55.978,44.779l51.925,41.536h105.466c4.598,0,8.339-3.741,8.339-8.34v-30.14
		c0-8.174,6.628-14.803,14.803-14.803s14.803,6.629,14.803,14.803v30.14C286.494,395.683,269.471,412.706,248.548,412.706z"/>
</g>
<g>
</g>
<g>
</g>
<g>
</g>
<g>
</g>
<g>
</g>
<g>
</g>
<g>
</g>
<g>
</g>
<g>
</g>
<g>
</g>
<g>
</g>
<g>
</g>
<g>
</g>
<g>
</g>
<g>
</g>
</svg>
