<?xml version="1.0" encoding="iso-8859-1"?>
<!-- Generator: Adobe Illustrator 19.0.0, SVG Export Plug-In . SVG Version: 6.00 Build 0)  -->
<svg version="1.1" id="Layer_1" xmlns="http://www.w3.org/2000/svg" xmlns:xlink="http://www.w3.org/1999/xlink" x="0px" y="0px"
	 viewBox="0 0 512 512" style="enable-background:new 0 0 512 512;" xml:space="preserve">
<path style="fill:#2D527C;" d="M467.202,511.667h-83.827c-8.703,0-15.761-7.056-15.761-15.761s7.058-15.761,15.761-15.761h83.827
	c7.321,0,13.276-5.955,13.276-13.274v-64.765c-5.408,0.706-10.532,1.067-15.238,1.067c-51.421,0-93.257-41.835-93.257-93.258
	c0-51.421,41.835-93.257,93.257-93.257c4.706,0,9.83,0.361,15.238,1.067V152.96c0-7.32-5.955-13.274-13.276-13.274H153.293
	c-7.321,0-13.276,5.955-13.276,13.274v16.018c0,8.705-7.058,15.761-15.761,15.761s-15.761-7.056-15.761-15.761V152.96
	c0-24.701,20.096-44.797,44.798-44.797h313.909c24.703,0,44.798,20.096,44.798,44.797v83.827c0,4.853-2.237,9.436-6.062,12.423
	c-3.827,2.988-8.814,4.044-13.523,2.869c-10.198-2.55-19.594-3.898-27.176-3.898c-34.041,0-61.734,27.694-61.734,61.734
	s27.693,61.736,61.734,61.736c7.583,0,16.978-1.348,27.176-3.896c4.71-1.181,9.696-0.12,13.523,2.867
	c3.825,2.987,6.062,7.569,6.062,12.423v83.827C512,491.571,491.904,511.667,467.202,511.667z M237.118,511.667h-83.825
	c-24.703,0-44.798-20.096-44.798-44.797V367.28c0-8.705,7.058-15.761,15.761-15.761s15.761,7.056,15.761,15.761v99.589
	c0,7.32,5.955,13.274,13.276,13.274h64.765c-0.706-5.408-1.069-10.532-1.069-15.236c0-51.421,41.835-93.257,93.258-93.257
	c8.703,0,15.761,7.056,15.761,15.761s-7.058,15.761-15.761,15.761c-34.041,0-61.735,27.694-61.735,61.734
	c0,7.58,1.348,16.977,3.898,27.176c1.177,4.708,0.12,9.696-2.867,13.523C246.556,509.43,241.971,511.667,237.118,511.667z"/>
<circle style="fill:#CEE8FA;" cx="310.372" cy="94.115" r="78.019"/>
<path style="fill:#2D527C;" d="M310.377,187.893c-51.711,0-93.78-42.069-93.78-93.78s42.068-93.78,93.78-93.78
	s93.78,42.069,93.78,93.78S362.086,187.893,310.377,187.893z M310.377,31.856c-34.328,0-62.257,27.929-62.257,62.257
	s27.929,62.257,62.257,62.257s62.257-27.929,62.257-62.257S344.705,31.856,310.377,31.856z"/>
<circle style="fill:#CEE8FA;" cx="93.78" cy="308.103" r="78.019"/>
<path style="fill:#2D527C;" d="M93.78,401.889c-51.711,0-93.78-42.069-93.78-93.78s42.069-93.78,93.78-93.78
	s93.78,42.069,93.78,93.78S145.491,401.889,93.78,401.889z M93.78,245.852c-34.328,0-62.257,27.929-62.257,62.257
	s27.929,62.257,62.257,62.257s62.257-27.929,62.257-62.257S128.108,245.852,93.78,245.852z"/>
<g>
</g>
<g>
</g>
<g>
</g>
<g>
</g>
<g>
</g>
<g>
</g>
<g>
</g>
<g>
</g>
<g>
</g>
<g>
</g>
<g>
</g>
<g>
</g>
<g>
</g>
<g>
</g>
<g>
</g>
</svg>
