<?xml version="1.0" encoding="iso-8859-1"?>
<!-- Generator: Adobe Illustrator 19.0.0, SVG Export Plug-In . SVG Version: 6.00 Build 0)  -->
<svg version="1.1" id="Layer_1" xmlns="http://www.w3.org/2000/svg" xmlns:xlink="http://www.w3.org/1999/xlink" x="0px" y="0px"
	 viewBox="0 0 512 512" style="enable-background:new 0 0 512 512;" xml:space="preserve">
<path style="fill:#2D527C;" d="M460.253,410.142h-45.898c-7.99,0-14.467-6.478-14.467-14.467s6.477-14.467,14.467-14.467h45.898
	c12.58,0,22.814-10.234,22.814-22.814V94.018c0-12.58-10.234-22.815-22.814-22.815H51.747c-12.58,0.001-22.814,10.235-22.814,22.815
	v264.378c0,12.579,10.234,22.814,22.814,22.814h273.402c7.99,0,14.467,6.478,14.467,14.467s-6.477,14.467-14.467,14.467H51.747
	C23.213,410.142,0,386.929,0,358.396V94.018c0-28.532,23.213-51.747,51.747-51.747h408.506C488.787,42.271,512,65.486,512,94.02
	v264.378C512,386.929,488.787,410.142,460.253,410.142z"/>
<rect x="186.85" y="395.674" style="fill:#CEE8FA;" width="138.3" height="59.588"/>
<g>
	<path style="fill:#2D527C;" d="M325.149,469.729H186.851c-7.99,0-14.467-6.478-14.467-14.467v-59.586
		c0-7.988,6.477-14.467,14.467-14.467h138.297c7.99,0,14.467,6.478,14.467,14.467v59.586
		C339.615,463.252,333.138,469.729,325.149,469.729z M201.318,440.796h109.364v-30.653H201.318L201.318,440.796L201.318,440.796z"/>
	<path style="fill:#2D527C;" d="M368.433,469.729H143.567c-7.99,0-14.467-6.478-14.467-14.467s6.477-14.467,14.467-14.467h224.865
		c7.99,0,14.467,6.478,14.467,14.467S376.422,469.729,368.433,469.729z"/>
</g>
<path style="fill:#CEE8FA;" d="M220.059,313.866c-4.263-6.642-6.747-14.535-6.747-23.013c0-23.576,19.112-42.688,42.688-42.688
	s42.689,19.112,42.689,42.688c0,8.479-2.484,16.372-6.747,23.013H392.55v-50.323l-30.349-4.854
	c-4.998-16.528-13.745-31.427-25.256-43.701l10.983-28.732l-47.304-27.313l-19.378,23.851c-8.113-1.884-16.56-2.889-25.248-2.889
	c-8.68,0-17.134,1.005-25.243,2.889l-19.378-23.851l-47.301,27.313l10.983,28.732c-11.515,12.275-20.263,27.173-25.261,43.701
	l-30.342,4.854v50.323L220.059,313.866L220.059,313.866z"/>
<path style="fill:#2D527C;" d="M392.548,328.333H291.942c-5.29,0-10.158-2.888-12.694-7.53c-2.536-4.642-2.338-10.299,0.521-14.75
	c2.915-4.542,4.456-9.797,4.456-15.2c0-15.562-12.66-28.221-28.223-28.221s-28.223,12.66-28.223,28.221
	c0,5.402,1.541,10.658,4.456,15.2c2.859,4.451,3.057,10.108,0.521,14.75c-2.536,4.642-7.405,7.53-12.694,7.53H119.452
	c-7.99,0-14.467-6.478-14.467-14.467v-50.322c0-7.107,5.163-13.163,12.181-14.284l21.782-3.485
	c4.689-12.139,11.3-23.572,19.498-33.724l-7.886-20.629c-2.537-6.639,0.123-14.138,6.278-17.693l47.301-27.313
	c6.156-3.554,13.98-2.109,18.462,3.405l13.917,17.13c12.872-2.009,26.082-2.011,38.957,0.001l13.918-17.131
	c4.483-5.516,12.31-6.958,18.462-3.405l47.303,27.313c6.156,3.554,8.817,11.055,6.278,17.693l-7.887,20.632
	c8.195,10.154,14.804,21.586,19.492,33.722l21.79,3.484c7.018,1.123,12.181,7.178,12.181,14.286v50.322
	C407.015,321.855,400.538,328.333,392.548,328.333z M312.515,299.4h65.567v-23.52l-18.167-2.906
	c-5.47-0.874-9.959-4.794-11.562-10.096c-4.255-14.072-11.85-27.21-21.962-37.995c-3.787-4.04-4.937-9.888-2.96-15.06l6.578-17.208
	l-25.936-14.976l-11.601,14.277c-3.486,4.291-9.115,6.216-14.498,4.971c-14.377-3.337-29.581-3.337-43.948,0
	c-5.39,1.247-11.015-0.68-14.5-4.971l-11.599-14.277l-25.934,14.976l6.578,17.208c1.978,5.173,0.827,11.023-2.963,15.063
	c-10.115,10.78-17.71,23.918-21.966,37.992c-1.603,5.302-6.092,9.222-11.562,10.096l-18.16,2.906v23.52h65.567
	c-0.425-2.814-0.641-5.671-0.641-8.547c0-31.515,25.641-57.154,57.156-57.154s57.156,25.639,57.156,57.154
	C313.156,293.729,312.94,296.586,312.515,299.4z"/>
<g>
</g>
<g>
</g>
<g>
</g>
<g>
</g>
<g>
</g>
<g>
</g>
<g>
</g>
<g>
</g>
<g>
</g>
<g>
</g>
<g>
</g>
<g>
</g>
<g>
</g>
<g>
</g>
<g>
</g>
</svg>
