<?xml version="1.0" encoding="iso-8859-1"?>
<!-- Generator: Adobe Illustrator 19.0.0, SVG Export Plug-In . SVG Version: 6.00 Build 0)  -->
<svg version="1.1" id="Layer_1" xmlns="http://www.w3.org/2000/svg" xmlns:xlink="http://www.w3.org/1999/xlink" x="0px" y="0px"
	 viewBox="0 0 512 512" style="enable-background:new 0 0 512 512;" xml:space="preserve">
<path style="fill:#CEE8FA;" d="M222.201,414.438h-67.6V303.153c0-18.668,15.133-33.801,33.801-33.801l0,0
	c18.668,0,33.801,15.133,33.801,33.801v111.286H222.201z"/>
<path style="fill:#2D527C;" d="M222.199,429.191h-67.6c-8.146,0-14.752-6.606-14.752-14.752V303.153
	c0-26.771,21.782-48.553,48.553-48.553s48.551,21.782,48.551,48.553v111.286C236.952,422.585,230.347,429.191,222.199,429.191z
	 M169.352,399.686h38.095v-96.533c0-10.504-8.545-19.048-19.047-19.048c-10.504,0-19.048,8.545-19.048,19.048L169.352,399.686
	L169.352,399.686z"/>
<path style="fill:#CEE8FA;" d="M289.801,414.438h-67.6v-151.85c0-18.668,15.133-33.801,33.801-33.801l0,0
	c18.668,0,33.801,15.133,33.801,33.801v151.85H289.801z"/>
<g>
	<path style="fill:#2D527C;" d="M289.801,429.191h-67.601c-8.146,0-14.752-6.606-14.752-14.752v-151.85
		c0-26.771,21.782-48.551,48.553-48.551s48.553,21.78,48.553,48.551v151.85C304.553,422.585,297.948,429.191,289.801,429.191z
		 M236.952,399.686h38.096V262.588c0-10.502-8.545-19.047-19.048-19.047c-10.504,0-19.048,8.545-19.048,19.047V399.686z"/>
	<path style="fill:#2D527C;" d="M357.402,429.191h-67.6c-8.146,0-14.752-6.606-14.752-14.752V222.025
		c0-26.771,21.78-48.553,48.551-48.553s48.553,21.782,48.553,48.553v111.59c0,8.146-6.606,14.752-14.752,14.752
		s-14.752-6.606-14.752-14.752v-111.59c0-10.504-8.545-19.048-19.048-19.048c-10.502,0-19.047,8.545-19.047,19.048v177.661h52.847
		c8.146,0,14.752,6.606,14.752,14.752S365.548,429.191,357.402,429.191z"/>
</g>
<path style="fill:#CEE8FA;" d="M88.939,414.438v51.294c0,17.406,14.111,31.515,31.515,31.515h271.09
	c17.406,0,31.515-14.111,31.515-31.515v-51.295H88.939"/>
<g>
	<path style="fill:#2D527C;" d="M391.546,512H120.454c-25.513,0-46.268-20.755-46.268-46.268v-51.295
		c0-8.146,6.606-14.752,14.752-14.752h334.122c8.146,0,14.752,6.606,14.752,14.752v51.295C437.814,491.245,417.058,512,391.546,512z
		 M103.691,429.191v36.543c0,9.244,7.521,16.763,16.763,16.763h271.092c9.244,0,16.763-7.521,16.763-16.763v-36.543H103.691z"/>
	<path style="fill:#2D527C;" d="M88.939,434.077c-8.146,0-14.752-6.606-14.752-14.752V93.021c0-8.146,6.606-14.752,14.752-14.752
		s14.752,6.606,14.752,14.752v326.304C103.691,427.472,97.087,434.077,88.939,434.077z"/>
	<path style="fill:#2D527C;" d="M423.061,348.367c-8.146,0-14.752-6.606-14.752-14.752V46.268c0-9.244-7.521-16.763-16.763-16.763
		H120.454c-9.244,0-16.763,7.521-16.763,16.763v32.305h191.867c8.146,0,14.752,6.606,14.752,14.752s-6.606,14.752-14.752,14.752
		H88.939c-8.146,0-14.752-6.606-14.752-14.752V46.268C74.186,20.755,94.942,0,120.454,0h271.092
		c25.513,0,46.268,20.755,46.268,46.268v287.346C437.814,341.761,431.209,348.367,423.061,348.367z"/>
</g>
<g>
</g>
<g>
</g>
<g>
</g>
<g>
</g>
<g>
</g>
<g>
</g>
<g>
</g>
<g>
</g>
<g>
</g>
<g>
</g>
<g>
</g>
<g>
</g>
<g>
</g>
<g>
</g>
<g>
</g>
</svg>
