<?xml version="1.0" encoding="iso-8859-1"?>
<!-- Generator: Adobe Illustrator 19.0.0, SVG Export Plug-In . SVG Version: 6.00 Build 0)  -->
<svg version="1.1" id="Layer_1" xmlns="http://www.w3.org/2000/svg" xmlns:xlink="http://www.w3.org/1999/xlink" x="0px" y="0px"
	 viewBox="0 0 512 512" style="enable-background:new 0 0 512 512;" xml:space="preserve">
<g>
	<path style="fill:#2D527C;" d="M328.896,272.643h-84.762c-7.741,0-14.015-6.275-14.015-14.015V155.685
		c0-7.741,6.275-14.015,14.015-14.015h42.661c7.739,0,14.015,6.275,14.015,14.015v56.209c0,7.741-6.276,14.015-14.015,14.015
		c-7.739,0-14.015-6.275-14.015-14.015v-42.194H258.15v74.912h70.747c7.739,0,14.015,6.275,14.015,14.015
		S336.635,272.643,328.896,272.643z"/>
	<path style="fill:#2D527C;" d="M245.442,512c-7.741,0-14.015-6.275-14.015-14.015V314.491c0-5.008,2.671-9.634,7.008-12.137
		c4.336-2.503,9.679-2.503,14.015,0l158.912,91.747c4.336,2.503,7.008,7.129,7.008,12.137s-2.671,9.634-7.008,12.137l-89.749,51.817
		c-6.701,3.872-15.272,1.574-19.145-5.13c-3.871-6.703-1.574-15.275,5.13-19.145l68.726-39.68l-116.866-67.473v159.22
		C259.457,505.725,253.182,512,245.442,512z"/>
</g>
<path style="fill:#CEE8FA;" d="M245.442,443.749v-55.766c-37.231-2.45-73.76-17.864-102.153-46.257
	c-62.15-62.15-62.15-163.276,0-225.426s163.276-62.15,225.426,0s62.15,163.276,0,225.426c-9.973,9.973-20.953,18.336-32.61,25.109
	l53.398,30.829c6.436-5.102,12.653-10.609,18.597-16.555c83.866-83.866,83.866-220.327,0-304.194s-220.327-83.866-304.194,0
	s-83.866,220.327,0,304.194C143.156,420.361,193.93,441.241,245.442,443.749z"/>
<path style="fill:#2D527C;" d="M245.442,457.764c-0.227,0-0.454-0.006-0.683-0.017c-56.966-2.775-110.511-26.475-150.766-66.729
	c-89.331-89.331-89.331-234.683,0-324.014C137.203,23.796,194.738,0,256.001,0S374.8,23.796,418.008,67.005
	c89.329,89.331,89.329,234.683,0,324.014c-6.176,6.176-12.838,12.108-19.802,17.627c-4.506,3.571-10.736,4.028-15.714,1.155
	l-53.398-30.829c-4.331-2.5-7.001-7.118-7.008-12.119c-0.007-5.001,2.652-9.626,6.975-12.137
	c10.829-6.29,20.835-13.995,29.741-22.901c56.686-56.686,56.686-148.92,0-205.606c-27.412-27.411-63.92-42.508-102.804-42.508
	s-75.391,15.096-102.802,42.508c-27.412,27.412-42.508,63.922-42.508,102.804c0,38.882,15.096,75.39,42.508,102.802
	c24.885,24.887,57.972,39.867,93.164,42.183c7.366,0.485,13.094,6.601,13.094,13.986v55.768c0,3.836-1.571,7.504-4.349,10.148
	C252.495,456.385,249.032,457.764,245.442,457.764z M256.001,28.03c-53.776,0-104.272,20.881-142.188,58.796
	c-78.401,78.401-78.401,205.97,0,284.372c31.838,31.838,73.156,51.873,117.612,57.299v-27.891
	c-37.043-5.274-71.463-22.385-98.048-48.972c-32.706-32.706-50.718-76.253-50.718-122.622s18.012-89.918,50.718-122.624
	c32.704-32.706,76.253-50.718,122.622-50.718s89.917,18.012,122.624,50.718c67.613,67.616,67.613,177.632,0,245.246
	c-5.087,5.087-10.479,9.847-16.134,14.251l25.565,14.761c3.508-3.054,6.897-6.213,10.132-9.448
	c78.402-78.402,78.402-205.972,0-284.372C360.273,48.911,309.776,28.03,256.001,28.03z"/>
<g>
</g>
<g>
</g>
<g>
</g>
<g>
</g>
<g>
</g>
<g>
</g>
<g>
</g>
<g>
</g>
<g>
</g>
<g>
</g>
<g>
</g>
<g>
</g>
<g>
</g>
<g>
</g>
<g>
</g>
</svg>
