<?xml version="1.0" encoding="iso-8859-1"?>
<!-- Generator: Adobe Illustrator 19.0.0, SVG Export Plug-In . SVG Version: 6.00 Build 0)  -->
<svg version="1.1" id="Layer_1" xmlns="http://www.w3.org/2000/svg" xmlns:xlink="http://www.w3.org/1999/xlink" x="0px" y="0px"
	 viewBox="0 0 512 512" style="enable-background:new 0 0 512 512;" xml:space="preserve">
<path style="fill:#CEE8FA;" d="M377.741,195.011c-20.923,0-40.542,5.532-57.525,15.172v38.762c0,22.163-17.967,40.131-40.131,40.131
	h-14.211h-2.642c-1.443,7.332-2.217,14.905-2.217,22.66c0,64.465,52.259,116.726,116.725,116.726s116.725-52.259,116.725-116.726
	S442.206,195.011,377.741,195.011z"/>
<g>
	<path style="fill:#2D527C;" d="M377.741,444.255c-73.072,0-132.519-59.448-132.519-132.517c0-8.585,0.846-17.234,2.516-25.71
		c1.458-7.403,7.948-12.741,15.495-12.741h16.853c13.42,0,24.339-10.919,24.339-24.339v-38.762c0-5.684,3.054-10.928,7.996-13.733
		c19.856-11.272,42.443-17.231,65.32-17.231c73.07,0,132.517,59.448,132.517,132.517S450.812,444.255,377.741,444.255z
		 M277.044,304.87c-0.158,2.291-0.235,4.581-0.235,6.868c0,55.655,45.279,100.933,100.934,100.933s100.933-45.278,100.933-100.933
		s-45.278-100.933-100.933-100.933c-14.417,0-28.677,3.106-41.732,9.038v29.105c0,30.836-25.087,55.923-55.923,55.923h-3.043V304.87
		z"/>
	<path style="fill:#2D527C;" d="M373.829,362.669c-17.073-0.569-31.014-9.39-31.014-18.494c0-4.837,4.269-11.95,9.674-11.95
		c5.976,0,10.813,8.394,21.34,10.243v-23.047c-13.089-4.979-28.454-11.097-28.454-29.307c0-18.068,13.373-26.747,28.454-28.881
		v-3.983c0-1.991,2.276-3.841,5.406-3.841c2.702,0,5.406,1.849,5.406,3.841v3.556c8.82,0.284,25.466,2.561,25.466,12.376
		c0,3.842-2.561,11.667-8.822,11.667c-4.695,0-7.399-4.553-16.645-5.264v20.771c12.946,4.837,28.026,11.524,28.026,30.73
		c0,17.641-11.381,28.312-28.026,31.014v4.127c0,1.991-2.704,3.841-5.406,3.841c-3.13,0-5.406-1.849-5.406-3.841L373.829,362.669
		L373.829,362.669z M375.251,296.94v-16.929c-6.402,1.281-9.106,4.553-9.106,7.967C366.147,292.103,369.845,294.665,375.251,296.94z
		 M383.218,323.26v19.064c4.837-1.139,8.679-3.842,8.679-8.964C391.897,328.667,388.339,325.679,383.218,323.26z"/>
	<path style="fill:#2D527C;" d="M168.877,295.417c-58.644,0-106.354-47.71-106.354-106.352v-37.262
		c0-8.72,7.072-15.792,15.792-15.792h111.888c8.72,0,15.792,7.072,15.792,15.792c0,8.72-7.072,15.792-15.792,15.792H94.107v21.471
		c0,41.227,33.539,74.768,74.768,74.768s74.77-33.539,74.77-74.768v-37.263c0-8.72,7.072-15.792,15.792-15.792
		c8.72,0,15.792,7.072,15.792,15.792v37.263C275.228,247.707,227.518,295.417,168.877,295.417z"/>
</g>
<path style="fill:#CEE8FA;" d="M230.686,327.531l-61.811,61.811l-61.811-61.811c-38.561,21.755-64.765,63.113-64.765,110.315v58.362
	h253.15v-58.362C295.451,390.643,269.247,349.287,230.686,327.531z"/>
<path style="fill:#2D527C;" d="M295.451,512H42.299c-8.72,0-15.792-7.072-15.792-15.792v-58.362
	c0-51.195,27.894-98.736,72.797-124.068c6.176-3.484,13.914-2.426,18.927,2.587l50.644,50.644l50.642-50.644
	c5.017-5.012,12.754-6.069,18.927-2.587c44.903,25.332,72.797,72.875,72.797,124.068v58.362
	C311.243,504.928,304.172,512,295.451,512z M58.092,480.416h221.568v-42.569c0-35.878-17.652-69.47-46.746-90.21l-52.871,52.871
	c-6.168,6.165-16.165,6.165-22.335,0l-52.871-52.871c-29.094,20.74-46.746,54.331-46.746,90.21v42.569H58.092z"/>
<path id="SVGCleanerId_0" style="fill:#2D527C;" d="M280.085,304.868h-14.21c-8.72,0-15.792-7.072-15.792-15.792
	s7.072-15.792,15.792-15.792h14.21c13.42,0,24.339-10.917,24.339-24.337v-81.811c0.002-74.743-60.806-135.551-135.548-135.551
	c-74.743,0-135.551,60.808-135.551,135.551v81.811c0,13.42,10.919,24.337,24.339,24.337h14.211c8.72,0,15.792,7.072,15.792,15.792
	s-7.072,15.792-15.792,15.792H57.665c-30.836,0-55.923-25.087-55.923-55.922v-81.811C1.742,74.977,76.717,0,168.875,0
	S336.01,74.977,336.01,167.135v81.811C336.01,279.781,310.923,304.868,280.085,304.868z"/>
<g>
	<path id="SVGCleanerId_0_1_" style="fill:#2D527C;" d="M280.085,304.868h-14.21c-8.72,0-15.792-7.072-15.792-15.792
		s7.072-15.792,15.792-15.792h14.21c13.42,0,24.339-10.917,24.339-24.337v-81.811c0.002-74.743-60.806-135.551-135.548-135.551
		c-74.743,0-135.551,60.808-135.551,135.551v81.811c0,13.42,10.919,24.337,24.339,24.337h14.211c8.72,0,15.792,7.072,15.792,15.792
		s-7.072,15.792-15.792,15.792H57.665c-30.836,0-55.923-25.087-55.923-55.922v-81.811C1.742,74.977,76.717,0,168.875,0
		S336.01,74.977,336.01,167.135v81.811C336.01,279.781,310.923,304.868,280.085,304.868z"/>
</g>
<g>
</g>
<g>
</g>
<g>
</g>
<g>
</g>
<g>
</g>
<g>
</g>
<g>
</g>
<g>
</g>
<g>
</g>
<g>
</g>
<g>
</g>
<g>
</g>
<g>
</g>
<g>
</g>
<g>
</g>
</svg>
