<?xml version="1.0" encoding="iso-8859-1"?>
<!-- Generator: Adobe Illustrator 19.0.0, SVG Export Plug-In . SVG Version: 6.00 Build 0)  -->
<svg version="1.1" id="Layer_1" xmlns="http://www.w3.org/2000/svg" xmlns:xlink="http://www.w3.org/1999/xlink" x="0px" y="0px"
	 viewBox="0 0 512.002 512.002" style="enable-background:new 0 0 512.002 512.002;" xml:space="preserve">
<path style="fill:#2D527C;" d="M366.617,354.231c-7.321,0-13.689-5.418-14.683-12.875c-1.083-8.121,4.623-15.58,12.743-16.661
	c7.984-1.065,14.006-7.952,14.006-16.023v-84.359c0-8.923-7.259-16.181-16.181-16.181c-2.876,0-5.595,0.728-8.082,2.169
	c-4.589,2.651-10.246,2.655-14.837,0.007c-4.592-2.649-7.421-7.547-7.421-12.848v-0.851c0-8.923-7.259-16.181-16.181-16.181
	c-2.882,0-5.595,0.725-8.064,2.158c-7.087,4.11-16.163,1.7-20.271-5.39c-4.11-7.085-1.697-16.161,5.389-20.271
	c6.95-4.031,14.886-6.161,22.947-6.161c18.917,0,35.197,11.52,42.192,27.91c1.436-0.136,2.88-0.206,4.328-0.206
	c25.279,0,45.845,20.567,45.845,45.846v84.359c0,22.878-17.088,42.407-39.751,45.427C367.93,354.188,367.27,354.231,366.617,354.231
	z"/>
<path style="fill:#CEE8FA;" d="M348.388,497.17H193.835c-14.844,0-26.879-12.034-26.879-26.879v-72.157h208.311v72.158
	C375.266,485.136,363.233,497.17,348.388,497.17z"/>
<g>
	<path style="fill:#2D527C;" d="M348.388,512.002H193.835c-22.999,0-41.712-18.711-41.712-41.71v-72.158
		c0-8.19,6.64-14.832,14.832-14.832h208.311c8.192,0,14.832,6.642,14.832,14.832v72.158
		C390.099,493.291,371.388,512.002,348.388,512.002z M181.788,412.966v57.326c0,6.642,5.405,12.045,12.047,12.045h154.554
		c6.642,0,12.047-5.405,12.047-12.045v-57.326H181.788z"/>
	<path style="fill:#2D527C;" d="M181.852,359.448c-0.159,0-0.317-0.003-0.476-0.007c-19.042-0.601-35.725-13.18-41.513-31.301
		c-0.016-0.05-0.031-0.099-0.047-0.15l-34.049-110.611c-7.498-23.646,5.604-49.012,29.239-56.571
		c12.22-3.902,24.898-2.302,35.347,3.411L160.253,50.682c-2.791-24.875,15.105-47.443,39.994-50.362
		c12.102-1.427,24.018,1.956,33.573,9.508c9.555,7.548,15.598,18.367,17.017,30.461l3.45,29.422l9.708-29.549
		c8.124-23.941,34.06-36.737,57.867-28.658c23.805,8.079,36.599,34.018,28.521,57.821l-16.105,47.241
		c-2.645,7.754-11.072,11.899-18.825,9.252c-7.754-2.643-11.897-11.071-9.254-18.824l16.099-47.222
		c2.815-8.296-1.654-17.355-9.969-20.178c-8.314-2.821-17.375,1.648-20.196,9.963l-30.653,93.305
		c-2.173,6.614-8.656,10.828-15.577,10.128c-6.925-0.697-12.436-6.115-13.247-13.029l-11.283-96.216
		c-0.495-4.226-2.606-8.004-5.943-10.642s-7.498-3.815-11.727-3.321c-8.72,1.022-14.984,8.95-13.96,17.671
		c0.016,0.138,0.03,0.276,0.042,0.414l16.913,190.143c0.67,7.524-4.424,14.352-11.83,15.851c-7.403,1.505-14.754-2.808-17.065-9.999
		l-14.392-44.786c-2.591-8.118-11.279-12.597-19.376-10.01c-8.085,2.585-12.566,11.279-9.981,19.376
		c0.015,0.047,0.031,0.096,0.046,0.145l34.042,110.589c1.992,6.148,7.679,10.411,14.171,10.614
		c8.187,0.258,14.616,7.105,14.358,15.294C196.414,353.113,189.825,359.448,181.852,359.448z"/>
</g>
<g>
</g>
<g>
</g>
<g>
</g>
<g>
</g>
<g>
</g>
<g>
</g>
<g>
</g>
<g>
</g>
<g>
</g>
<g>
</g>
<g>
</g>
<g>
</g>
<g>
</g>
<g>
</g>
<g>
</g>
</svg>
