<?xml version="1.0" encoding="iso-8859-1"?>
<!-- Generator: Adobe Illustrator 19.0.0, SVG Export Plug-In . SVG Version: 6.00 Build 0)  -->
<svg version="1.1" id="Layer_1" xmlns="http://www.w3.org/2000/svg" xmlns:xlink="http://www.w3.org/1999/xlink" x="0px" y="0px"
	 viewBox="0 0 512 512" style="enable-background:new 0 0 512 512;" xml:space="preserve">
<g>
	<path style="fill:#2D527C;" d="M144.117,394.205c-3.098,0.001-6.219-0.997-8.848-3.056c-41.85-32.788-65.851-82.047-65.851-135.15
		c0-51.847,22.884-100.034,62.917-132.8L181.261,8.719C183.521,3.431,188.719,0,194.47,0h93.098c5.751,0,10.948,3.431,13.207,8.719
		l25.373,59.372c3.118,7.294-0.27,15.735-7.564,18.852c-7.292,3.12-15.735-0.27-18.852-7.564l-21.647-50.652h-74.135
		l-46.617,109.075c-0.949,2.223-2.446,4.171-4.349,5.662c-34.852,27.306-54.84,68.322-54.84,112.536s19.988,85.23,54.84,112.536
		c6.245,4.892,7.341,13.921,2.449,20.165C152.6,392.317,148.38,394.205,144.117,394.205z"/>
	<path style="fill:#2D527C;" d="M287.568,512H194.47c-5.751,0-10.948-3.431-13.207-8.719l-23.5-54.984
		c-3.118-7.294,0.269-15.734,7.564-18.852c7.292-3.12,15.734,0.27,18.852,7.564l19.775,46.266h74.135L324.704,374.2
		c0.949-2.223,2.446-4.171,4.349-5.662c34.852-27.306,54.842-68.323,54.842-112.536c0-44.213-19.989-85.23-54.842-112.536
		c-6.245-4.892-7.341-13.921-2.449-20.165c4.892-6.245,13.919-7.341,20.165-2.449c41.85,32.788,65.853,82.049,65.853,135.15
		c0,51.847-22.884,100.033-62.918,132.8l-48.926,114.481C298.516,508.569,293.319,512,287.568,512z"/>
	<path style="fill:#2D527C;" d="M428.219,270.363h-29.962c-7.931,0-14.363-6.432-14.363-14.363s6.432-14.363,14.363-14.363h29.962
		c7.931,0,14.363,6.432,14.363,14.363S436.15,270.363,428.219,270.363z"/>
</g>
<circle style="fill:#CEE8FA;" cx="241.016" cy="255.996" r="95.07"/>
<g>
	<path style="fill:#2D527C;" d="M241.018,365.44c-60.346,0-109.439-49.095-109.439-109.439s49.095-109.439,109.439-109.439
		c60.347,0,109.441,49.095,109.441,109.439S301.364,365.44,241.018,365.44z M241.018,175.286c-44.505,0-80.713,36.208-80.713,80.713
		s36.208,80.713,80.713,80.713c44.506,0,80.714-36.208,80.714-80.713S285.524,175.286,241.018,175.286z"/>
	<path style="fill:#2D527C;" d="M241.018,287.147c-3.677,0-7.351-1.403-10.156-4.207l-31.147-31.147
		c-5.609-5.609-5.609-14.704,0-20.314c5.61-5.607,14.702-5.607,20.314,0l20.989,20.989l20.989-20.989
		c5.61-5.607,14.702-5.607,20.314,0c5.609,5.609,5.609,14.704,0,20.314l-31.147,31.147
		C248.37,285.744,244.694,287.147,241.018,287.147z"/>
	<path style="fill:#2D527C;" d="M337.91,146.521c-3.677,0-7.351-1.403-10.156-4.207c-5.609-5.609-5.609-14.702,0-20.314
		l21.365-21.367c5.607-5.607,14.702-5.607,20.314,0c5.609,5.609,5.609,14.702,0,20.314l-21.365,21.367
		C345.263,145.118,341.586,146.521,337.91,146.521z"/>
</g>
<g>
</g>
<g>
</g>
<g>
</g>
<g>
</g>
<g>
</g>
<g>
</g>
<g>
</g>
<g>
</g>
<g>
</g>
<g>
</g>
<g>
</g>
<g>
</g>
<g>
</g>
<g>
</g>
<g>
</g>
</svg>
